<svg width="100" height="100" viewBox="0 0 100 100" xmlns="http://www.w3.org/2000/svg" xmlns:xlink="http://www.w3.org/1999/xlink">
  <title>XLMS Logo</title>

  <!-- Gradient Definition for the 'X' -->
  <defs>
    <linearGradient id="logoGradient" x1="0%" y1="0%" x2="100%" y2="100%">
      <stop offset="0%" style="stop-color:#00E0FF; stop-opacity:1" />
      <stop offset="100%" style="stop-color:#0080FF; stop-opacity:1" />
    </linearGradient>
  </defs>

  <!-- 'X' Shape -->
  <path d="M 50 10 L 15 50 L 50 90 L 60 90 L 25 50 L 60 10 Z M 50 10 L 85 50 L 50 90 L 40 90 L 75 50 L 40 10 Z" fill="url(#logoGradient)" />

  <!-- 'S' Shape -->
  <path d="M 80 25 C 80 45, 65 48, 50 50 C 35 52, 20 55, 20 75 L 35 75 C 35 60, 45 58, 50 50 C 55 42, 65 40, 65 25 Z" fill="#0050D0" />

  <!-- Sparkle Details -->
  <path d="M 50 42 L 52 44 L 50 46 L 48 44 Z" fill="#FFFFFF" />
  <path d="M 38 28 L 39 29 L 38 30 L 37 29 Z" fill="#B0E0FF" />
  <path d="M 62 72 L 63 73 L 62 74 L 61 73 Z" fill="#B0E0FF" />
</svg>